<svg width="187" height="26" viewBox="0 0 187 26" fill="none" xmlns="http://www.w3.org/2000/svg">
<g clip-path="url(#clip0_136_93964)">
<path d="M13.559 7.68997H10.7056L6.8785 16.3118L6.87579 16.3144L3.10292 7.68997H1.51078L1.50806 7.68469L0 7.68997L5.35145 19.7647H5.35688L6.78086 22.9721L13.559 7.68997Z" fill="#B0B8D8"/>
<path d="M17.4403 14.7278H23.2013V12.5552H17.4403V9.93118H23.9635V7.68994H14.5869V19.7647H24.194V17.5234H17.4403V14.7278Z" fill="#B0B8D8"/>
<path d="M32.5428 9.86252C33.785 9.86252 34.8293 10.3456 35.662 11.2775L37.5064 9.6223C36.3373 8.24165 34.5472 7.48401 32.4017 7.48401C28.5394 7.48401 25.667 10.0896 25.667 13.7273C25.667 17.365 28.5394 19.9732 32.3855 19.9732C34.5472 19.9732 36.3373 19.2129 37.5091 17.8164L35.6647 16.1612C34.832 17.1089 33.785 17.592 32.5455 17.592C30.2237 17.592 28.5746 16.0055 28.5746 13.7273C28.5746 11.4491 30.2237 9.86252 32.5455 9.86252H32.5428Z" fill="#B0B8D8"/>
<path d="M37.9131 9.9655H41.884V19.7647H44.7563V9.9655H48.7245V7.68994H37.9131V9.9655Z" fill="#B0B8D8"/>
<path d="M56.0995 7.48132C52.1829 7.48132 49.3105 10.137 49.3105 13.7246C49.3105 17.3122 52.1802 19.9705 56.0995 19.9705C60.0189 19.9705 62.8885 17.3306 62.8885 13.7246C62.8885 10.1185 59.9999 7.48132 56.0995 7.48132ZM56.0995 17.5894C53.8836 17.5894 52.2182 16.0186 52.2182 13.7246C52.2182 11.4306 53.8836 9.85984 56.0995 9.85984C58.3155 9.85984 59.9809 11.4306 59.9809 13.7246C59.9809 16.0186 58.3155 17.5894 56.0995 17.5894Z" fill="#B0B8D8"/>
<path d="M75.8099 12.0694C75.8099 9.36093 73.7349 7.68726 70.4232 7.68726H65.0527V19.762H67.9251V16.3988H70.5669L72.9592 19.762H76.0431L73.2603 15.8814C74.8741 15.2082 75.8126 13.8804 75.8126 12.0694H75.8099ZM70.2631 14.1734H67.9224V9.96546H70.2631C72.018 9.96546 72.905 10.7416 72.905 12.0694C72.905 13.3973 72.018 14.1734 70.2631 14.1734Z" fill="#B0B8D8"/>
<path d="M113.918 12.0694C113.918 9.36093 111.843 7.68726 108.532 7.68726H103.161V19.762H106.034V16.3988H108.675L111.068 19.762H114.152L111.369 15.8814C112.983 15.2082 113.921 13.8804 113.921 12.0694H113.918ZM108.372 14.1734H106.034V9.96546H108.372C110.126 9.96546 111.013 10.7416 111.013 12.0694C111.013 13.3973 110.126 14.1734 108.372 14.1734Z" fill="#B0B8D8"/>
<path d="M119.042 14.7278H124.803V12.5552H119.042V9.93118H125.565V7.68994H116.188V19.7647H125.796V17.5234H119.042V14.7278Z" fill="#B0B8D8"/>
<path d="M130.209 11.1059C130.209 10.3456 130.865 9.72521 132.566 9.72521C133.664 9.72521 134.852 10.0367 136.005 10.6729L136.892 8.55047C135.739 7.84298 134.144 7.48132 132.585 7.48132C129.059 7.48132 127.355 9.18931 127.355 11.2431C127.355 15.7283 134.57 14.176 134.57 16.4357C134.57 17.1775 133.879 17.7293 132.178 17.7293C130.689 17.7293 129.129 17.2119 128.085 16.4701L127.111 18.574C128.21 19.4029 130.195 19.9705 132.162 19.9705C135.707 19.9705 137.426 18.2467 137.426 16.2272C137.426 11.7949 130.212 13.3286 130.212 11.1032L130.209 11.1059Z" fill="#B0B8D8"/>
<path d="M142.243 14.7278H148.004V12.5552H142.243V9.93118H148.766V7.68994H139.39V19.7647H148.997V17.5234H142.243V14.7278Z" fill="#B0B8D8"/>
<path d="M162.043 12.0694C162.043 9.36093 159.968 7.68726 156.657 7.68726H151.286V19.762H154.158V16.3988H156.8L159.193 19.762H162.277L159.494 15.8814C161.108 15.2082 162.046 13.8804 162.046 12.0694H162.043ZM156.497 14.1734H154.156V9.96546H156.497C158.251 9.96546 159.138 10.7416 159.138 12.0694C159.138 13.3973 158.251 14.1734 156.497 14.1734Z" fill="#B0B8D8"/>
<path d="M180.124 17.5234V14.7278H185.882V12.5552H180.124V9.93118H186.647V7.68994H177.271V19.7647H186.875V17.5234H180.124Z" fill="#B0B8D8"/>
<path d="M80.1523 13.0013L83.8086 18.1042L89.4665 26L98.7807 12.9987L89.4665 0L80.1523 13.0013ZM82.6151 13.0013L87.5598 6.09808L84.5572 15.7098L82.6151 13.0013ZM86.0273 17.7636L89.4611 6.77389L92.8868 17.79L89.4665 22.5629L86.0273 17.761V17.7636ZM96.3179 13.0013L94.3596 15.7362L91.357 6.07432L96.3206 13.0013H96.3179Z" fill="#B0B8D8"/>
<path d="M176.226 7.68997H173.386L169.559 16.3144L165.784 7.68997H164.021L164.018 7.68469H162.67L169.456 22.9906L176.025 8.17571L176.24 7.68997L176.242 7.68469L176.226 7.68997Z" fill="#B0B8D8"/>
</g>
<defs>
<clipPath id="clip0_136_93964">
<rect width="186.875" height="26" fill="white"/>
</clipPath>
</defs>
</svg>
