<svg width="20" height="20" viewBox="0 0 18 18" fill="none" xmlns="http://www.w3.org/2000/svg">
<path d="M16.8021 2.07041L0.968199 7.90089C0.905858 7.92385 0.851844 7.96495 0.813136 8.01895C0.774428 8.07294 0.752822 8.13731 0.751089 8.20372C0.749357 8.27013 0.767588 8.33555 0.803429 8.39149C0.839269 8.44743 0.891069 8.49131 0.952128 8.51749L4.70644 10.1265L6.49457 15.1427C6.5131 15.1945 6.54716 15.2393 6.59213 15.271C6.63709 15.3028 6.69075 15.3198 6.74578 15.3199H6.75844C6.81125 15.316 6.8617 15.2964 6.90334 15.2637L6.90234 15.2689L6.91378 15.2597L6.91556 15.2582L9.75914 12.9686L7.87899 11.6202L13.83 15.8881C13.8747 15.9201 13.9266 15.9405 13.9812 15.9475C14.0357 15.9545 14.0911 15.9479 14.1425 15.9282C14.1938 15.9085 14.2394 15.8763 14.2753 15.8346C14.3111 15.7929 14.336 15.7429 14.3477 15.6892L17.2412 2.45273C17.2539 2.39458 17.2508 2.33407 17.2321 2.27755C17.2134 2.22104 17.1798 2.17061 17.1349 2.13153C17.09 2.09244 17.0354 2.06613 16.9769 2.05539C16.9183 2.04464 16.858 2.04982 16.8021 2.07041ZM6.70065 14.1322L5.2142 9.96283L13.9917 4.58507L7.4547 11.2661C7.42165 11.3002 7.39818 11.3424 7.38662 11.3885L6.70065 14.1322Z" fill="#B0B8D8"/>
</svg>
