<?xml version="1.0" encoding="UTF-8"?><svg id="Layer_2" xmlns="http://www.w3.org/2000/svg" viewBox="0 0 688.9848 98.4917"><defs><style>.cls-1{fill:#fff;stroke-width:0px;}</style></defs><g id="Layer_1-2"><path class="cls-1" d="m89.2002,63.6223v8.4946h-35.418V26.3749h34.5684v8.4946h-24.0474v9.9331h21.237v8.2329h-21.237v10.5867h24.8969Z"/><path class="cls-1" d="m94.627,49.2453c0-13.788,10.5857-23.6554,24.8312-23.6554,7.9067,0,14.5062,2.876,18.8197,8.1037l-6.7965,6.2732c-3.0709-3.5286-6.9268-5.359-11.5009-5.359-8.5603,0-14.6375,6.0126-14.6375,14.6375s6.0773,14.6375,14.6375,14.6375c4.5741,0,8.43-1.8294,11.5009-5.4237l6.7965,6.2732c-4.3135,5.2934-10.913,8.1683-18.8853,8.1683-14.1799,0-24.7656-9.8675-24.7656-23.6554Z"/><path class="cls-1" d="m154.4218,35.0008h-14.6375v-8.6259h39.8607v8.6259h-14.6375v37.116h-10.5857v-37.116Z"/><path class="cls-1" d="m181.806,49.2453c0-13.592,10.5857-23.6554,25.0272-23.6554,14.3759,0,25.0272,9.9988,25.0272,23.6554s-10.6513,23.6554-25.0272,23.6554c-14.4415,0-25.0272-10.0634-25.0272-23.6554Zm39.3374,0c0-8.6906-6.1419-14.6375-14.3102-14.6375s-14.3113,5.947-14.3113,14.6375,6.1429,14.6375,14.3113,14.6375,14.3102-5.9459,14.3102-14.6375Z"/><path class="cls-1" d="m268.9807,72.1168l-8.8209-12.7424h-9.7372v12.7424h-10.5857V26.3749h19.7995c12.2202,0,19.8652,6.3378,19.8652,16.5972,0,6.8622-3.4629,11.8929-9.4098,14.4415l10.2594,14.7032h-11.3706Zm-9.9321-37.116h-8.6259v15.9436h8.6259c6.4692,0,9.7361-3.0053,9.7361-7.9724,0-5.0317-3.2669-7.9713-9.7361-7.9713Z"/><path class="cls-1" d="m409.482,72.1168l-8.8219-12.7424h-9.7361v12.7424h-10.5867V26.3749h19.8006c12.2191,0,19.8652,6.3378,19.8652,16.5972,0,6.8622-3.4639,11.8929-9.4098,14.4415l10.2594,14.7032h-11.3706Zm-9.9331-37.116h-8.6249v15.9436h8.6249c6.4703,0,9.7372-3.0053,9.7372-7.9724,0-5.0317-3.2669-7.9713-9.7372-7.9713Z"/><path class="cls-1" d="m463.7875,63.6223v8.4946h-35.418V26.3749h34.5684v8.4946h-24.0474v9.9331h21.237v8.2329h-21.237v10.5867h24.8969Z"/><path class="cls-1" d="m468.6264,67.6084l3.5932-7.9724c3.8559,2.8093,9.6058,4.7701,15.0951,4.7701,6.2732,0,8.8219-2.0911,8.8219-4.9014,0-8.5603-26.5961-2.679-26.5961-19.6692,0-7.7753,6.2732-14.2456,19.2773-14.2456,5.7499,0,11.6323,1.3729,15.879,4.0519l-3.2669,8.038c-4.2478-2.4184-8.6259-3.5942-12.6778-3.5942-6.2732,0-8.6906,2.3527-8.6906,5.2277,0,8.43,26.5961,2.6133,26.5961,19.4076,0,7.6461-6.3389,14.1799-19.4086,14.1799-7.2531,0-14.5718-2.1557-18.6226-5.2923Z"/><path class="cls-1" d="m549.3309,63.6223v8.4946h-35.418V26.3749h34.5684v8.4946h-24.0474v9.9331h21.237v8.2329h-21.237v10.5867h24.8969Z"/><path class="cls-1" d="m586.9088,72.1168l-8.8219-12.7424h-9.7372v12.7424h-10.5857V26.3749h19.7995c12.2202,0,19.8652,6.3378,19.8652,16.5972,0,6.8622-3.4629,11.8929-9.4098,14.4415l10.2594,14.7032h-11.3696Zm-9.9331-37.116h-8.6259v15.9436h8.6259c6.4692,0,9.7372-3.0053,9.7372-7.9724,0-5.0317-3.268-7.9713-9.7372-7.9713Z"/><path class="cls-1" d="m688.9848,63.6223v8.4946h-35.418V26.3749h34.5684v8.4946h-24.0474v9.9331h21.237v8.2329h-21.237v10.5867h24.8969Z"/><path class="cls-1" d="m364.1855,49.2458L329.8494.0002v-.0002s-.0001.0002-.0001.0002v-.0002s-34.3365,49.2458-34.3365,49.2458l34.3364,49.2458,34.3364-49.2458Zm-47.0162,18.0381l12.661-41.6267,12.6257,41.7312-12.6069,18.0811-12.6798-18.1855Zm37.9366-18.0381l-7.2233,10.3596-11.0736-36.6011,18.2969,26.2415Zm-50.5135,0l18.2313-26.1475-11.0748,36.4114-7.1565-10.2639Z"/><polygon class="cls-1" points="49.9899 26.375 39.4688 26.375 25.3535 59.0471 11.4353 26.375 0 26.375 25.3535 84.2676 49.9899 26.375"/><polygon class="cls-1" points="649.7745 26.375 639.2534 26.375 625.1381 59.0471 611.2199 26.375 599.7846 26.375 625.1381 84.2676 649.7745 26.375"/></g></svg>